<svg xmlns="http://www.w3.org/2000/svg" xmlns:xlink="http://www.w3.org/1999/xlink" width="1920" height="515" viewBox="0 0 1920 515"><defs><clipPath id="a"><rect width="1920" height="515" transform="translate(0 1033)" fill="#fff" stroke="#707070" stroke-width="1"/></clipPath></defs><g transform="translate(0 -1033)" clip-path="url(#a)"><path d="M326.665,73.865a38.517,38.517,0,0,1-20.739,6.41,23.159,23.159,0,0,1-14.706-4.713,40.4,40.4,0,0,1-9.8-10.935,36.817,36.817,0,0,1-4.9-12.255q-1.131-6.033.377-8.673,8.673-4.148,18.1-9.615a147.641,147.641,0,0,0,17.534-11.878A79.178,79.178,0,0,0,326.288,8.444a36.062,36.062,0,0,0,7.164-15.271,8.826,8.826,0,0,0-2.074-7.541q-2.828-3.394-11.5-4.525a24.793,24.793,0,0,0-6.033-.754h-6.033A172.576,172.576,0,0,0,278.4-16.82a239.176,239.176,0,0,0-32.994,8.3A246.057,246.057,0,0,0,212.6,4.861a143.892,143.892,0,0,0-28.846,18.665,100.165,100.165,0,0,0-20.927,23.755,61.52,61.52,0,0,0-9.238,28.469,64.247,64.247,0,0,0,1.7,20.173,104.352,104.352,0,0,0,6.976,19.608,173.164,173.164,0,0,0,10.369,18.854q5.845,9.238,12.255,18.665,7.541,11.689,14.894,23.567A133.69,133.69,0,0,1,211.847,201.5a122.183,122.183,0,0,1,6.41,26.961,84.3,84.3,0,0,1-2.074,29.789q-6.41,22.624-24.7,46.38a224.078,224.078,0,0,1-44.117,42.986A233.9,233.9,0,0,1,91,378.539Q60.453,390.229,29.91,389.1A140.524,140.524,0,0,1-4.969,380.99a121.224,121.224,0,0,1-33.182-18.1,86.1,86.1,0,0,1-23.756-28.28q-8.861-16.78-5.845-39.027,3.394-24.133,17.722-46.568T-4.4,205.463l-1.508.377q3.017-2.64,11.5,1.131a97.562,97.562,0,0,1,17.157,9.992,102.522,102.522,0,0,1,14.894,12.82q6.222,6.6,4.713,9.992L31.8,245.81q-8.673,4.525-17.157,9.427A108.456,108.456,0,0,0-1.2,266.361,69.775,69.775,0,0,0-13.83,280.312a41.965,41.965,0,0,0-6.787,17.534q-2.262,15.083,2.451,24.51A34.243,34.243,0,0,0-4.215,337.061a61.779,61.779,0,0,0,21.3,7.164,158.53,158.53,0,0,0,24.51,1.885,129.717,129.717,0,0,0,40.535-6.222,116.9,116.9,0,0,0,34.125-17.534,96.485,96.485,0,0,0,24.887-27.526,102.525,102.525,0,0,0,13.2-36.576,56.1,56.1,0,0,0-.566-19.985,81.5,81.5,0,0,0-6.6-19.042,134.323,134.323,0,0,0-10.747-18.1q-6.222-8.861-12.632-17.534-7.541-10.558-14.706-21.3a123.912,123.912,0,0,1-11.878-22.436A94.75,94.75,0,0,1,91,115.72a71.258,71.258,0,0,1,2.262-26.772A129.391,129.391,0,0,1,112.3,48.979a209.148,209.148,0,0,1,32.051-36.01,262.864,262.864,0,0,1,41.478-30.354,317.911,317.911,0,0,1,46.945-23,278.82,278.82,0,0,1,48.454-14.14,190.891,190.891,0,0,1,46.191-3.582q13.575,1.131,22.059,5.845a36.124,36.124,0,0,1,13.2,12.066,38.03,38.03,0,0,1,5.656,17.157A77.968,77.968,0,0,1,367.389-2.3q-4.148,23.756-14.14,41.666a156,156,0,0,1-24.7,32.994Zm-27.9,61.463q-6.787,2.262-11.124,0a10.153,10.153,0,0,1-5.468-6.6q-1.131-4.336,1.32-9.615t8.861-9.427q15.46-9.8,30.354-17.722t29.977-14.329q28.28-49.019,42.609-84.087,6.033-3.017,14.14.189A41.935,41.935,0,0,1,424.138,3.73a45.628,45.628,0,0,1,9.992,15.648,22.527,22.527,0,0,1,0,17.157L423.2,55.766a281.938,281.938,0,0,1,49.773-4.525q3.771,0,9.8.189t9.8.566a28.291,28.291,0,0,1-1.32,12.255,51.134,51.134,0,0,1-5.845,12.443,47.482,47.482,0,0,1-8.484,9.992q-4.713,4.148-9.238,4.148-3.771-.377-7.918-.566t-8.3-.189a229.021,229.021,0,0,0-26.018,1.508,258.942,258.942,0,0,0-26.772,4.525q-5.279,9.05-10.747,17.722t-10.747,16.591l-3.017,4.9q-4.525,7.164-12.443,19.608t-17.157,27.715q-9.238,15.271-19.042,32.051t-18.1,32.428q-8.3,15.648-13.952,28.846T286.7,297.092a3.665,3.665,0,0,0-.754,1.885,1.536,1.536,0,0,1-.377,1.131H288.2A71.908,71.908,0,0,0,309.7,287.854a181.577,181.577,0,0,0,20.362-19.231,287.453,287.453,0,0,0,18.854-23q9.05-12.255,17.345-23.944h-.377a81.432,81.432,0,0,1,4.9-6.6q2.64-3.205,4.9-6.222,1.508-2.262,5.279-1.131a24.062,24.062,0,0,1,7.353,3.771,20.41,20.41,0,0,1,5.656,6.222q2.074,3.582.566,6.222l-12.443,16.968q-15.46,21.493-33.371,43.552a276.478,276.478,0,0,1-37.9,38.65,89.158,89.158,0,0,1-20.362,13.2,91.715,91.715,0,0,1-13.575,5.09,51.314,51.314,0,0,1-14.329,2.074q-8.3-.377-13.575-4.148a24.44,24.44,0,0,1-8.107-9.992A41.377,41.377,0,0,1,237.488,315a81.2,81.2,0,0,1,.943-17.911q.754-4.148,1.885-8.861a61.628,61.628,0,0,1,2.639-8.484,344.132,344.132,0,0,1,14.706-38.461q8.673-19.231,18.854-38.084t21.3-37.33q11.124-18.476,22.436-36.2l4.9-7.541-25.264,12.82ZM511.053,116.1q15.083,3.017,22.059,14.706a56.3,56.3,0,0,1,7.73,26.4,32.85,32.85,0,0,1,5.279,12.82,86.906,86.906,0,0,1,1.508,16.968,33.425,33.425,0,0,0-.943,6.033,62.791,62.791,0,0,1-.943,7.164,147.856,147.856,0,0,1-9.615,32.994,220.252,220.252,0,0,1-16.78,32.428A229.431,229.431,0,0,1,497.1,295.4a181.8,181.8,0,0,1-26.018,24.51,129.416,129.416,0,0,1-27.715,16.4,69.5,69.5,0,0,1-27.338,6.033q-24.51-.377-40.347-16.214t-16.591-49.019q0-4.148.377-8.861t1.131-9.992a129.423,129.423,0,0,1,10.558-33.371,219.377,219.377,0,0,1,45.06-63.914,196.548,196.548,0,0,1,30.354-24.7,139.266,139.266,0,0,1,32.24-15.837A82.615,82.615,0,0,1,511.053,116.1Zm-26.395,99.547q-3.017-1.131-3.959-5.279a41.764,41.764,0,0,1-.943-9.238,65.459,65.459,0,0,1,.943-10.747q.943-5.656,1.7-9.8a25.347,25.347,0,0,1,4.713-9.615,54.378,54.378,0,0,1,7.73-8.3,82.451,82.451,0,0,1,8.107-6.222,63.014,63.014,0,0,1,6.222-3.771q-1.131-.754-5.279-.754-8.3.754-19.231,6.6a108.4,108.4,0,0,0-20.739,14.517,158.431,158.431,0,0,0-18.854,20.927,211.539,211.539,0,0,0-15.648,23.944,190.212,190.212,0,0,0-11.689,24.7,105.71,105.71,0,0,0-6.222,22.813q-2.64,14.329,1.131,23.944t16.214,10.369q9.05.377,18.854-4.713a89.531,89.531,0,0,0,19.231-13.763,160.026,160.026,0,0,0,18.288-20.173,206,206,0,0,0,16.026-24.133,198.01,198.01,0,0,0,12.066-25.075,103.186,103.186,0,0,0,6.41-23l.754-1.885a13.744,13.744,0,0,0-6.976,2.451,46.743,46.743,0,0,0-7.541,5.845,56.9,56.9,0,0,0-6.41,7.164,28.312,28.312,0,0,0-3.959,6.787Zm217.947,52.79q-10.558,12.82-23.379,26.206a234.906,234.906,0,0,1-27.149,24.321,145.474,145.474,0,0,1-29.789,17.722,67.017,67.017,0,0,1-30.543,6.033,29.728,29.728,0,0,1-14.706-4.148,25.223,25.223,0,0,1-9.238-9.992,38.572,38.572,0,0,1-3.959-14.14,62.2,62.2,0,0,1,.754-16.591,115.627,115.627,0,0,1,7.541-23.378,138.593,138.593,0,0,1,11.5-20.739q6.6-9.8,14.14-19.231t15.837-19.231l9.05-10.558v.377l10.935-12.82a31.382,31.382,0,0,1,8.107-7.541q5.09-3.394,16.026-6.41-5.279,1.131-8.673,1.7a55.085,55.085,0,0,0-6.033,1.32l-9.8,2.262a40.083,40.083,0,0,1-11.312.754h-3.771q-10.181,12.82-19.231,25.075t-16.968,23.19v-.377q-1.508,2.262-5.279,1.131a20.282,20.282,0,0,1-7.164-3.959,23.944,23.944,0,0,1-5.468-6.41q-2.074-3.582.189-6.222v.377q10.935-14.329,18.477-25.075t13.575-19.042q-3.017-6.41-1.131-15.083a48.778,48.778,0,0,1,8.3-20.739q6.41-9.05,15.083-21.116,3.394-4.9,7.353-10.935a126.6,126.6,0,0,0,8.107-14.706q5.279,3.017,10.558,6.222a41.771,41.771,0,0,1,9.238,7.541,27.582,27.582,0,0,1,5.845,9.992,26.921,26.921,0,0,1,.754,12.82q-.754,3.394-1.885,7.353a43.21,43.21,0,0,1-4.148,9.238L638.5,160.592q-1.885,2.262,1.885.566t10.935-5.845q7.164-4.148,16.214-9.8T685.26,134.2q8.673-5.656,15.271-10.558a91.407,91.407,0,0,0,9.238-7.541q2.262,0,5.656,2.262a61.746,61.746,0,0,1,6.6,5.09q3.205,2.828,5.656,5.279a19.17,19.17,0,0,1,2.828,3.205q3.017,6.41,0,15.271a86.75,86.75,0,0,1-9.992,19.419,245.332,245.332,0,0,1-16.968,22.436q-9.992,11.878-20.927,24.321-6.41,6.787-12.443,13.575t-12.066,13.952q-4.525,5.279-10.181,12.066T637,266.738a117.322,117.322,0,0,0-9.05,13.763q-3.771,6.787-4.525,11.312-.754,2.262,3.771,2.262,4.148.377,10.935-2.828a89.866,89.866,0,0,0,14.706-9.05,169.059,169.059,0,0,0,16.214-13.763,146.287,146.287,0,0,0,15.46-17.345h-.377q9.8-12.066,18.477-23.755t13.952-19.985q1.885-1.885,5.656-.566a21.476,21.476,0,0,1,7.164,4.336,21.819,21.819,0,0,1,5.279,6.976q1.885,3.959-.377,6.6l.377-.754-13.575,18.854L703.36,268.057Zm66.365-149.7q5.656-2.639,13.386.754a39.53,39.53,0,0,1,13.952,10.558,44.893,44.893,0,0,1,9.05,16.214,24.653,24.653,0,0,1-.943,17.722l-5.656,10.181q-3.771,6.787-9.05,15.46l.377-.377q-7.542,12.443-16.4,27.715T756.9,247.318q-7.918,15.083-13.763,28.469t-6.976,21.3l-1.508,3.017h3.394a71.908,71.908,0,0,0,21.493-12.255,181.577,181.577,0,0,0,20.362-19.231,287.453,287.453,0,0,0,18.854-23q9.05-12.255,17.345-23.944h-.377l6.41-8.3q10.558-20.739,21.682-44.306t22.059-48.831q5.656-2.64,13.763.566a43.791,43.791,0,0,1,14.894,9.992,42.2,42.2,0,0,1,9.992,15.648,22.923,22.923,0,0,1-.566,17.534L823.268,312.929q-11.312,21.116-22.059,39.97T779.528,388.72q11.312,7.918,21.87,16.78t21.116,18.288v-.754a24.614,24.614,0,0,1,2.262,2.639,13.133,13.133,0,0,0,2.64,2.639q3.771,3.017,2.451,7.164a21.074,21.074,0,0,1-5.468,8.3,49.488,49.488,0,0,1-10.369,7.73,114.855,114.855,0,0,1-12.443,6.222,47.059,47.059,0,0,1-11.312,3.394q-5.09.754-7.353-.754l-13.952-12.82L749.74,430.575q-27.9,34.691-59.954,53.921t-74.66,19.231a106.149,106.149,0,0,1-26.206-3.205,62.436,62.436,0,0,1-21.87-9.992A42.317,42.317,0,0,1,553.1,472.807q-4.713-10.935-2.074-26.772a94.419,94.419,0,0,1,14.894-37.142A122.35,122.35,0,0,1,594.2,379.1,132.976,132.976,0,0,1,631.339,359.5a127.158,127.158,0,0,1,41.478-6.976,208.021,208.021,0,0,1,20.927.943,142.854,142.854,0,0,1,16.78,2.639,129.541,129.541,0,0,1,14.517,4.148q6.976,2.451,14.14,5.468,7.164-12.066,14.14-23.944t14.14-24.321l-6.787,5.656a89.156,89.156,0,0,1-20.362,13.2,91.716,91.716,0,0,1-13.575,5.09,51.314,51.314,0,0,1-14.329,2.074q-16.214-.754-21.682-13.952t-2.451-32.051q.754-4.148,1.7-9.05a59.178,59.178,0,0,1,2.451-9.05q3.017-8.3,7.541-19.042t10.181-22.247q5.656-11.5,11.689-23.756T733.525,190q9.427-19.231,17.722-36.764t13.2-29.223ZM613.994,473.561a68.4,68.4,0,0,0,25.264-4.9,105.274,105.274,0,0,0,24.51-13.952,195.348,195.348,0,0,0,23.944-21.493,303.751,303.751,0,0,0,23.19-27.526q-19.231-8.673-44.872-9.05a144.492,144.492,0,0,0-27.149,2.828,112.383,112.383,0,0,0-27.338,8.861,80.541,80.541,0,0,0-21.87,15.083A35.294,35.294,0,0,0,578.926,444.9q-1.508,8.673,1.508,14.14a22.913,22.913,0,0,0,8.3,8.673,36.439,36.439,0,0,0,12.066,4.525A69.083,69.083,0,0,0,613.994,473.561Z" transform="translate(541.518 1025.328)" fill="#0f3a57" opacity="0.05"/></g></svg>