<svg xmlns="http://www.w3.org/2000/svg" width="189.175" height="81.274" viewBox="0 0 189.175 81.274">
  <path id="Icon_3" d="M274.118,208.445H263.6c-20.732-2.237-31.677-20.686-37.01-34.468V161.669h2.1v-7.8h-14.1v2.1H207.7v-2.1H193.6v2.1h-6.893v-2.1h-14.1v7.8h2.1v10.925c-4.528,11.116-13.786,27.718-30.172,33.779a24.7,24.7,0,0,1-8.694-5.052,18.273,18.273,0,0,1-3.714-4.857V185.81h1.048v-4.651h-7.8v1.049h-2.7V181.16h-7.8v1.049h-2.7V181.16h-7.8v4.651h1.048v10.52a22.35,22.35,0,0,1-16.181,12.114H86.454a.752.752,0,0,0,0,1.5h4.629a.752.752,0,0,0,.711.785l13.638.711v10.349a.752.752,0,1,0,1.5,0V184.307h-1.048v-1.646h4.794v1.049h5.7v-1.049h4.8v1.049h5.7v-1.049h4.8v1.646h-1.054v8.361a24.3,24.3,0,0,1-.85-6.56.5.5,0,0,0-1,0,23.571,23.571,0,0,0,1.851,9.5v10.151a22.481,22.481,0,0,1-2.7-1.558V193.455a8.578,8.578,0,0,0-3.482-6.923l-.416-.278-.416.278a8.628,8.628,0,0,0-3.461,6.676,27.411,27.411,0,0,1-.872-7.1.5.5,0,1,0-1,0,26.186,26.186,0,0,0,1.851,10.109v10.444a19.6,19.6,0,0,1-2.7-1.466V193.455a8.578,8.578,0,0,0-3.483-6.923l-.416-.278-.416.278a8.576,8.576,0,0,0-3.483,6.923v.208a31.713,31.713,0,0,1-.85-7.553.5.5,0,1,0-1,0,29.565,29.565,0,0,0,1.851,10.865v14.689l20.992,1.094v4.84a.752.752,0,0,0,1.5,0v-4.762l42.579,2.217V234.39a.752.752,0,0,0,1.5,0V208.444l0-48.277h-2.1v-4.8H185.2v2.1h9.9v-2.1h11.1v2.1h9.9v-2.1h11.093v4.8h-2.1v9.642a84.107,84.107,0,0,1-2.952-11.073.5.5,0,1,0-.989.165,88.3,88.3,0,0,0,3.942,13.928V196.5a60.668,60.668,0,0,1-6.893-6.406V177.712a16.369,16.369,0,0,0-6.634-13.221l-.416-.278-.416.278a16.23,16.23,0,0,0-5.174,6.394,69.532,69.532,0,0,1-4.417-12.174.5.5,0,0,0-.978.217,72.246,72.246,0,0,0,4.886,13.221,16.417,16.417,0,0,0-.952,5.562v21.032a51.172,51.172,0,0,1-6.893-5.551v-15.48a16.369,16.369,0,0,0-6.634-13.221l-.416-.278-.416.278a16.417,16.417,0,0,0-5.9,8.351,56.975,56.975,0,0,1-3.677-14.066.5.5,0,0,0-1,.084,59.21,59.21,0,0,0,4.263,15.615,16.822,16.822,0,0,0-.314,3.235V215.49l41.986,2.187V224.5a.752.752,0,1,0,1.5,0v-6.746L263.88,219.7h.041a.751.751,0,0,0,.041-1.5l-79.35-4.135v-4.115h89.515a.752.752,0,0,0,.752-.752.762.762,0,0,0-.757-.75Zm-168.686-1.063c-1.889.362-3.65.611-5.132.766a25.774,25.774,0,0,0,5.132-2.219Zm0-8.966v6.321a29.76,29.76,0,0,1-10.578,3.708h-1.7a23.086,23.086,0,0,0,12.274-10.029Zm69.274-23.247v22.317c-7.029,5.954-14.616,9.526-22.641,10.724a41.548,41.548,0,0,1-6.029-1.336c14.966-6.088,23.9-20.792,28.669-31.7Zm-53.077,33.173c.108.038.214.068.323.1h-.323Zm19.652.1c1.1-.286,2.181-.606,3.225-.978,1.116.387,2.231.708,3.327.978Zm-9.156,0v-.921a28.762,28.762,0,0,0,2.744.921Zm23.912,0a47.119,47.119,0,0,0,18.668-9.679v7.762a46.629,46.629,0,0,1-9.4,1.917ZM132.124,198.41a19.388,19.388,0,0,0,3.031,3.637,25.113,25.113,0,0,0,7.826,4.851,36.819,36.819,0,0,1-4.928,1.224,30.611,30.611,0,0,1-5.928-1.692Zm-1.5,8.472v1.562h-2.7v-3.035a23.8,23.8,0,0,0,2.7,1.473Zm-4.2-3.8c-.3-.242-.6-.472-.883-.738a18.061,18.061,0,0,1-1.793-1.953,19.933,19.933,0,0,0,2.676-3.078Zm-4.8-9.627a7.1,7.1,0,0,1,2.4-5.342,7.1,7.1,0,0,1,2.4,5.342v1.971a18.616,18.616,0,0,1-3.288,4.164,18.683,18.683,0,0,1-1.509-2.477v-3.658Zm.785,6.837c-.246.214-.525.411-.785.619v-1.779C121.877,199.528,122.137,199.915,122.413,200.291Zm-.785,1.895c.479-.359.953-.717,1.39-1.1a19.16,19.16,0,0,0,1.839,1.991,19.942,19.942,0,0,0,1.565,1.294v4.073h-.041a24.448,24.448,0,0,1-4.755-1.174v-5.085Zm-1.5,5.566v.693h-2.7v-2.087A20.978,20.978,0,0,0,120.126,207.752Zm-4.2-3.661c-.25-.207-.5-.4-.749-.623a17.4,17.4,0,0,1-2.236-2.536,20.06,20.06,0,0,0,2.984-3.383Zm-1.418.122c.2.186.421.324.629.5a41.345,41.345,0,0,1-4.009,1.491v-3.787c.362-.271.711-.545,1.052-.83A18.2,18.2,0,0,0,114.511,204.213Zm-3.378,3.043a42.305,42.305,0,0,0,4.8-1.793v2.98h-4.8Zm0-13.8a7.1,7.1,0,0,1,2.4-5.342,7.1,7.1,0,0,1,2.4,5.342v2.153a18.275,18.275,0,0,1-3.584,4.509,18.913,18.913,0,0,1-1.214-2.2v-4.464Zm.45,7.335c-.144.122-.3.235-.451.355v-1.128c.154.256.288.527.451.773Zm-.45,9.445v-.288h63.576v3.6Zm60.367-1.79c1.077-.25,2.145-.549,3.207-.877v.877Zm46.7-1.9a65.615,65.615,0,0,0,6.893,1.717v.182H218.2Zm16.025,1.9c-2.665-.194-5.216-.493-7.63-.915v-8.639a56.014,56.014,0,0,0,21.947,9.554Zm-7.627-31.808c5.179,12.377,14.717,27.426,31.33,31.809h-1.96a56.109,56.109,0,0,1-29.367-10.8V176.637Zm-1.5,21.154v9.442A64.648,64.648,0,0,1,218.2,205.5V191.581a60.584,60.584,0,0,0,6.893,6.211Zm-8.4-9.368a71.053,71.053,0,0,1-6.494-8.889q2.716-3.754,5.212-7.852a14.64,14.64,0,0,1,1.284,6.032v10.71Zm-5.544-22.367a15.661,15.661,0,0,1,3.736,4.574q-2.5,4.162-5.244,7.977c-1.206-2.005-2.268-3.968-3.183-5.829a15.574,15.574,0,0,1,4.69-6.722Zm-2.156,13.423q-1.664,2.268-3.4,4.389v-6.158a14.753,14.753,0,0,1,.454-3.52c.869,1.7,1.842,3.476,2.941,5.288Zm-3.4,5.979c1.357-1.618,2.672-3.317,3.964-5.066a70.83,70.83,0,0,0,7.132,9.536V204.97a54.561,54.561,0,0,1-11.1-5.262Zm-1.5,14.531v8.458H197.2V194.57A51.914,51.914,0,0,0,204.1,199.989Zm-19.487-11.3q1.876-2.322,3.663-4.878a55,55,0,0,0,7.429,9.312v1.123a65.55,65.55,0,0,1-11.093,7.949Zm11.093,2.975a54.112,54.112,0,0,1-6.8-8.762c1.221-1.8,2.416-3.654,3.56-5.593.845-1.428,1.645-2.923,2.438-4.417a14.725,14.725,0,0,1,.808,4.815Zm-5.547-25.608a15.536,15.536,0,0,1,4.264,5.625c-.905,1.737-1.847,3.464-2.824,5.122-1.056,1.787-2.157,3.5-3.281,5.168a59.976,59.976,0,0,1-3.492-6.759,15.345,15.345,0,0,1,5.332-9.158ZM187.7,182.89c-1.007,1.455-2.043,2.836-3.092,4.178V177.71c0-.165.032-.306.036-.467a60.23,60.23,0,0,0,3.056,5.646Zm-3.092,20.464a65.536,65.536,0,0,0,11.093-7.8v12.889H184.609ZM205.6,200.9a55.725,55.725,0,0,0,11.1,5.146v2.4H205.6Z" transform="translate(-85.703 -153.868)" fill="#0f3a57" opacity="0.4"></path>
</svg>
