<svg xmlns="http://www.w3.org/2000/svg" width="24" height="24" viewBox="0 0 24 24"><rect width="24" height="24" fill="#fff" opacity="0"/><path d="M79.954,0a.714.714,0,0,0-.7.714V.724h0V13.273L74.761,8.782a.714.714,0,1,0-1.009,1.01L79.461,15.5l.008.007h0l.022.021h0l.029.026h0l.019.014h0l.034.024,0,0,.026.016,0,0,.029.016,0,0,.026.012,0,0,.029.013,0,0,.032.011h.005l.025.009h.005l.032.008h0l.029.006h0l.031,0h0l.034,0h.074c.022,0,.043,0,.064,0h0L80.1,15.7h0l.039-.008h-.005l.032-.008h-.005l.047-.014H80.2l.031-.011,0,0a.4.4,0,0,0,.042-.018l0,0,.058-.029,0,0,0,0,0,0c.017-.009.03-.018.043-.027l0,0,.03-.021h0c.017-.013.033-.025.047-.038h0l0,0c.012-.01.023-.019.033-.029l5.708-5.708a.714.714,0,0,0-.5-1.225h-.021a.713.713,0,0,0-.491.215l-4.49,4.491V.715A.713.713,0,0,0,79.965,0h-.011ZM70.688,18.563h-.01a.714.714,0,0,0,0,1.427H89.251a.714.714,0,0,0,0-1.427H70.688Z" transform="translate(-67.965 2)" fill="#fff"/></svg>