<svg xmlns="http://www.w3.org/2000/svg" xmlns:xlink="http://www.w3.org/1999/xlink" width="162" height="95.123" viewBox="0 0 162 95.123"><defs><clipPath id="a"><rect width="162" height="95.123" fill="#0f3a57"/></clipPath></defs><g clip-path="url(#a)"><path d="M277.236,33.055a4.078,4.078,0,0,0-4.066,4.074v6.38h8.143v-6.38a4.084,4.084,0,0,0-4.077-4.074m1.812,8.191h-3.613V37.129a1.806,1.806,0,1,1,3.613,0Z" transform="translate(-134.008 -16.216)" fill="#0f3a57"/><path d="M275.921,185.3c-.084-.5-.187-.989-.3-1.476Z" transform="translate(-135.21 -90.178)" fill="#0f3a57"/><path d="M251.153,103.011a100.169,100.169,0,0,1-3.588,15.82s11.487,8.9,14.293,21.032l-.414-2.039a14.686,14.686,0,0,1,.714,3.516V121.833a4.575,4.575,0,1,1,5.048,0v19.4l-.007.11a.3.3,0,0,1,.007-.036v.036c0-.029.011-.063.013-.1,2.2-12.837,14.572-22.414,14.572-22.414a103.127,103.127,0,0,1-4.5-24.618Z" transform="translate(-121.447 -46.218)" fill="#0f3a57"/><path d="M277.882,19.324c.223,0,2.768.2,3.657-.759,1.118-1.166-1.33-3.134-1.33-3.134L265.334,2.124,262.916,0l-2.128,2.124L245.918,15.432s-2.072,1.673-1.567,2.772c.2,1.614,3.674,1.12,3.9,1.12,1.185,0,2.284.347,2.284,2.838l.033,2.775h-5.113l-.267,1.958a8.953,8.953,0,0,0,1.672,6.43,6.733,6.733,0,0,0,3.544,2.227c.078.589.155,1.4.194,2.469.008.3.009.648.009,1.01a99.457,99.457,0,0,1-.442,12.674l25.327-8.6a72.106,72.106,0,0,1,.236-7.549h.053a.026.026,0,0,0,0-.014,6.727,6.727,0,0,0,3.491-2.21,8.96,8.96,0,0,0,1.676-6.43l-.266-1.961h-5.12l.033-2.749c0-2.517,1.1-2.864,2.289-2.864M278.7,27.2s.817,6.031-4.882,6.362c0,0-.01.023-.039.075a33.846,33.846,0,0,0-.365,7.866l-.1.037v-.023l-10.259,3.455-10.6,3.624a51.576,51.576,0,0,0-.146-15.034c-5.7-.331-4.882-6.362-4.882-6.362h5.428l-.06-5.043c0-4.541-3.047-5.1-4.549-5.1a5.028,5.028,0,0,0-.818.06L263.05,3.141V3.118l.009.016.009-.016v.023L278.7,17.12a5.02,5.02,0,0,0-.818-.06c-1.5,0-4.555.561-4.555,5.1l-.06,5.043Z" transform="translate(-119.832)" fill="#0f3a57"/><path d="M14.036,77.982l.247,1.715a21.43,21.43,0,0,1-6.121.734q-4.515,0-6.338-2.8T0,67.943q0-6.89,1.824-9.689t6.338-2.8a20.935,20.935,0,0,1,5.689.665L13.6,57.834a41.447,41.447,0,0,0-5.441-.315q-3.4,0-4.73,2.274T2.1,67.943q0,5.876,1.33,8.15t4.73,2.274a37.212,37.212,0,0,0,5.874-.385" transform="translate(0 -27.204)" fill="#0f3a57"/><path d="M34.812,56.279V75.938q0,2.554,2.226,2.553h7.946l.062,1.749q-3.277.209-8.348.209A3.655,3.655,0,0,1,33.761,79.3a4.514,4.514,0,0,1-.989-3.043V56.279Z" transform="translate(-16.077 -27.609)" fill="#0f3a57"/><path d="M69.833,72.44H60.527l-2.35,7.975h-2.1l7.142-23.471a.788.788,0,0,1,.8-.665H66.34a.789.789,0,0,1,.8.665l7.142,23.471h-2.1Zm-.587-1.994L66.185,60.057q-.031-.175-.247-.892T65.629,58.1h-.866l-.587,1.959L61.115,70.446Z" transform="translate(-27.508 -27.609)" fill="#0f3a57"/><path d="M101.874,69.406l-4.545-1.084a4.841,4.841,0,0,1-3.215-2.081,8.555,8.555,0,0,1-.959-4.46,12.464,12.464,0,0,1,.371-3.376,3.322,3.322,0,0,1,1.3-1.906,5.157,5.157,0,0,1,2.041-.822,16.935,16.935,0,0,1,3.03-.157,30.735,30.735,0,0,1,6.152.56l-.155,1.679q-3.648-.21-5.9-.21a20.227,20.227,0,0,0-2.226.088,3.552,3.552,0,0,0-1.407.507,2.056,2.056,0,0,0-.928,1.294A9.866,9.866,0,0,0,95.2,61.85a5.645,5.645,0,0,0,.665,3.13,3.528,3.528,0,0,0,2.272,1.312l4.452,1.049a4.99,4.99,0,0,1,3.355,2.082,8.616,8.616,0,0,1,.973,4.529,11.778,11.778,0,0,1-.4,3.393,3.647,3.647,0,0,1-1.33,1.959,5.3,5.3,0,0,1-2.1.892,16.879,16.879,0,0,1-3.092.227A37.412,37.412,0,0,1,93.5,79.9l.124-1.714q3.833.21,6.431.21,2.812-.034,3.8-.874t.989-3.6a5.8,5.8,0,0,0-.665-3.218,3.6,3.6,0,0,0-2.3-1.295" transform="translate(-45.699 -27.233)" fill="#0f3a57"/><path d="M132.764,69.406l-4.544-1.084A4.841,4.841,0,0,1,125,66.241a8.555,8.555,0,0,1-.959-4.46,12.508,12.508,0,0,1,.371-3.376,3.33,3.33,0,0,1,1.3-1.906,5.163,5.163,0,0,1,2.041-.822,16.945,16.945,0,0,1,3.03-.157,30.744,30.744,0,0,1,6.153.56l-.156,1.679q-3.647-.21-5.9-.21a20.22,20.22,0,0,0-2.226.088,3.549,3.549,0,0,0-1.407.507,2.056,2.056,0,0,0-.928,1.294,9.84,9.84,0,0,0-.232,2.414,5.649,5.649,0,0,0,.665,3.13,3.527,3.527,0,0,0,2.272,1.312l4.452,1.049a4.986,4.986,0,0,1,3.355,2.082,8.611,8.611,0,0,1,.973,4.529,11.763,11.763,0,0,1-.4,3.393,3.645,3.645,0,0,1-1.33,1.959,5.294,5.294,0,0,1-2.1.892,16.869,16.869,0,0,1-3.091.227,37.4,37.4,0,0,1-6.492-.524l.123-1.714q3.834.21,6.431.21,2.814-.034,3.8-.874t.989-3.6a5.8,5.8,0,0,0-.665-3.218,3.6,3.6,0,0,0-2.3-1.295" transform="translate(-60.852 -27.233)" fill="#0f3a57"/><rect width="2.01" height="24.136" transform="translate(79.981 28.67)" fill="#0f3a57"/><path d="M181.658,77.982l.247,1.715a21.435,21.435,0,0,1-6.121.734q-4.515,0-6.338-2.8t-1.824-9.69q0-6.89,1.824-9.689t6.338-2.8a20.943,20.943,0,0,1,5.689.665l-.248,1.714a41.452,41.452,0,0,0-5.441-.315q-3.4,0-4.731,2.274t-1.33,8.15q0,5.876,1.33,8.15t4.731,2.274a37.226,37.226,0,0,0,5.874-.385" transform="translate(-82.229 -27.204)" fill="#0f3a57"/><rect width="4.699" height="24.136" transform="translate(14.284 57.941)" fill="#0f3a57"/><path d="M59.466,113.736h4.545q1.7,0,1.762,1.994l.835,22.142H62.155L61.444,117.9h-.526L57.7,132.835a1.81,1.81,0,0,1-1.918,1.714H52.695a1.808,1.808,0,0,1-1.916-1.714L47.531,117.9h-.525l-.618,19.973H41.936l.773-22.142q.092-1.993,1.762-1.994h4.545q1.514,0,1.855,1.714l2.6,12.034q.247,1.155.557,3.393h.4q.031-.176.232-1.435t.325-1.958l2.566-12.034a1.859,1.859,0,0,1,1.917-1.714" transform="translate(-20.572 -55.795)" fill="#0f3a57"/><path d="M104.487,131.541H97.159l-1.546,6.331H90.79l6.153-22.737a1.7,1.7,0,0,1,.587-1.014,1.6,1.6,0,0,1,1.051-.385h4.452a1.56,1.56,0,0,1,1.638,1.4l6.153,22.737h-4.792Zm-1.02-4.127-1.793-7.381q-.371-1.749-.433-2.274h-.834q-.063.35-.217,1.119c-.1.512-.185.9-.247,1.154l-1.794,7.381Z" transform="translate(-44.538 -55.795)" fill="#0f3a57"/><path d="M146.422,123.513v13.922h-3.463l-.433-2.414a7.8,7.8,0,0,1-6.152,2.868,5.469,5.469,0,0,1-5.195-2.973q-1.607-2.973-1.608-9.62,0-7.065,2.118-9.759t7.436-2.693a22.209,22.209,0,0,1,6.554.84l-.371,3.918q-3.494-.174-6.029-.175a7.623,7.623,0,0,0-2.242.263,2.843,2.843,0,0,0-1.438,1.137,5.5,5.5,0,0,0-.834,2.431,32.092,32.092,0,0,0-.217,4.216q0,4.512.742,6.191a2.739,2.739,0,0,0,2.751,1.679,7.282,7.282,0,0,0,3.834-1.224v-8.6Z" transform="translate(-63.563 -55.357)" fill="#0f3a57"/><path d="M181.089,133.609l.216,3.919a95.429,95.429,0,0,1-9.893.349,4.511,4.511,0,0,1-3.4-1.311,5,5,0,0,1-1.3-3.551V118.393a5,5,0,0,1,1.3-3.551,4.511,4.511,0,0,1,3.4-1.311,95.2,95.2,0,0,1,9.893.35l-.216,3.952H172.9a1.351,1.351,0,0,0-1.114.42,2.17,2.17,0,0,0-.339,1.364v3.674h8.5v3.847h-8.5v4.653a2.24,2.24,0,0,0,.339,1.4,1.354,1.354,0,0,0,1.114.419Z" transform="translate(-81.784 -55.694)" fill="#0f3a57"/></g></svg>