<svg xmlns="http://www.w3.org/2000/svg" width="47" height="36" viewBox="0 0 47 36">
  <g id="Group_339" data-name="Group 339" transform="translate(-946.145 -1897)">
    <path id="Path" d="M18.36,0V2.86q-6.238,3.209-8.932,6.7a12.177,12.177,0,0,0-2.694,7.6,5.7,5.7,0,0,0,.709,3.349A1.844,1.844,0,0,0,9,21.487a8.326,8.326,0,0,0,2.481-.523,9,9,0,0,1,2.836-.523,7,7,0,0,1,5.069,2.128,7.014,7.014,0,0,1,2.162,5.2,7.547,7.547,0,0,1-2.623,5.755,9.282,9.282,0,0,1-6.522,2.407,11.581,11.581,0,0,1-8.578-4.046A13.963,13.963,0,0,1,0,21.905,20.727,20.727,0,0,1,4.714,8.895Q9.428,2.86,18.36,0Z" transform="translate(946.145 1897)" fill="#fff" opacity="0.5"/>
    <path id="Path-2" data-name="Path" d="M18.218,0V2.651Q11.059,6.7,8.79,9.905a12.714,12.714,0,0,0-2.268,7.534,4.635,4.635,0,0,0,.78,2.93,2.15,2.15,0,0,0,1.63.977,7.767,7.767,0,0,0,2.339-.558,9.2,9.2,0,0,1,3.119-.558,7.115,7.115,0,0,1,5.069,2.058,6.709,6.709,0,0,1,2.162,5.057,7.806,7.806,0,0,1-2.729,5.929,9.528,9.528,0,0,1-6.7,2.511,11.377,11.377,0,0,1-8.436-3.976A13.862,13.862,0,0,1,0,21.9,21.09,21.09,0,0,1,4.75,8.545Q9.5,2.511,18.218,0Z" transform="translate(971.524 1897.215)" fill="#fff" opacity="0.5"/>
  </g>
</svg>
