<svg xmlns="http://www.w3.org/2000/svg" xmlns:xlink="http://www.w3.org/1999/xlink" width="177" height="471" viewBox="0 0 177 471"><defs><clipPath id="a"><rect width="21" height="469" fill="none"/></clipPath></defs><g transform="translate(-1748 -1441)"><g transform="translate(1904 1443)" opacity="0.3" clip-path="url(#a)"><g transform="translate(-1901 -1444)"><rect width="21" height="3" transform="translate(1901 1444)" fill="#fff"/><rect width="21" height="3" transform="translate(1901 1455)" fill="#fff"/></g><g transform="translate(-1901 -1422)"><rect width="21" height="3" transform="translate(1901 1444)" fill="#fff"/><rect width="21" height="3" transform="translate(1901 1455)" fill="#fff"/></g><g transform="translate(-1901 -1400)"><rect width="21" height="3" transform="translate(1901 1444)" fill="#fff"/><rect width="21" height="3" transform="translate(1901 1455)" fill="#fff"/></g><g transform="translate(-1901 -1378)"><rect width="21" height="3" transform="translate(1901 1444)" fill="#fff"/><rect width="21" height="3" transform="translate(1901 1455)" fill="#fff"/></g><g transform="translate(-1901 -1356)"><rect width="21" height="3" transform="translate(1901 1444)" fill="#fff"/><rect width="21" height="3" transform="translate(1901 1455)" fill="#fff"/></g><g transform="translate(-1901 -1334)"><rect width="21" height="3" transform="translate(1901 1444)" fill="#fff"/><rect width="21" height="3" transform="translate(1901 1455)" fill="#fff"/></g><g transform="translate(-1901 -1312)"><rect width="21" height="3" transform="translate(1901 1444)" fill="#fff"/><rect width="21" height="3" transform="translate(1901 1455)" fill="#fff"/></g><g transform="translate(-1901 -1290)"><rect width="21" height="3" transform="translate(1901 1444)" fill="#fff"/><rect width="21" height="3" transform="translate(1901 1455)" fill="#fff"/></g><g transform="translate(-1901 -1268)"><rect width="21" height="3" transform="translate(1901 1444)" fill="#fff"/><rect width="21" height="3" transform="translate(1901 1455)" fill="#fff"/></g><g transform="translate(-1901 -1246)"><rect width="21" height="3" transform="translate(1901 1444)" fill="#fff"/><rect width="21" height="3" transform="translate(1901 1455)" fill="#fff"/></g><g transform="translate(-1901 -1224)"><rect width="21" height="3" transform="translate(1901 1444)" fill="#fff"/><rect width="21" height="3" transform="translate(1901 1455)" fill="#fff"/></g><g transform="translate(-1901 -1202)"><rect width="21" height="3" transform="translate(1901 1444)" fill="#fff"/><rect width="21" height="3" transform="translate(1901 1455)" fill="#fff"/></g><g transform="translate(-1901 -1180)"><rect width="21" height="3" transform="translate(1901 1444)" fill="#fff"/><rect width="21" height="3" transform="translate(1901 1455)" fill="#fff"/></g><g transform="translate(-1901 -1158)"><rect width="21" height="3" transform="translate(1901 1444)" fill="#fff"/><rect width="21" height="3" transform="translate(1901 1455)" fill="#fff"/></g><g transform="translate(-1901 -1136)"><rect width="21" height="3" transform="translate(1901 1444)" fill="#fff"/><rect width="21" height="3" transform="translate(1901 1455)" fill="#fff"/></g><g transform="translate(-1901 -1114)"><rect width="21" height="3" transform="translate(1901 1444)" fill="#fff"/><rect width="21" height="3" transform="translate(1901 1455)" fill="#fff"/></g><g transform="translate(-1901 -1092)"><rect width="21" height="3" transform="translate(1901 1444)" fill="#fff"/><rect width="21" height="3" transform="translate(1901 1455)" fill="#fff"/></g><g transform="translate(-1901 -1070)"><rect width="21" height="3" transform="translate(1901 1444)" fill="#fff"/><rect width="21" height="3" transform="translate(1901 1455)" fill="#fff"/></g><g transform="translate(-1901 -1048)"><rect width="21" height="3" transform="translate(1901 1444)" fill="#fff"/><rect width="21" height="3" transform="translate(1901 1455)" fill="#fff"/></g><g transform="translate(-1901 -1026)"><rect width="21" height="3" transform="translate(1901 1444)" fill="#fff"/><rect width="21" height="3" transform="translate(1901 1455)" fill="#fff"/></g><g transform="translate(-1901 -1004)"><rect width="21" height="3" transform="translate(1901 1444)" fill="#fff"/><rect width="21" height="3" transform="translate(1901 1455)" fill="#fff"/></g><g transform="translate(-1901 -982)"><rect width="21" height="3" transform="translate(1901 1444)" fill="#fff"/><rect width="21" height="3" transform="translate(1901 1455)" fill="#fff"/></g></g><rect width="42" height="1" transform="translate(1879 1576)" fill="#fff" opacity="0.4"/><g transform="translate(982 1443)"><text transform="translate(889 453)" fill="#f4f7f8" font-size="13" font-family="Roboto-Bold, Roboto" font-weight="700"><tspan x="-59.516" y="0">CONNECT</tspan></text><text transform="translate(889 390)" fill="#f4f7f8" font-size="13" font-family="Roboto-Bold, Roboto" font-weight="700"><tspan x="-40.796" y="0">MINDS</tspan></text><text transform="translate(889 327)" fill="#f4f7f8" font-size="13" font-family="Roboto-Bold, Roboto" font-weight="700"><tspan x="-122.421" y="0">BEHIND THE DESIGN</tspan></text><text transform="translate(889 264)" fill="#f4f7f8" font-size="13" font-family="Roboto-Bold, Roboto" font-weight="700"><tspan x="-78.133" y="0">ARCHITECTS</tspan></text><text transform="translate(889 201)" fill="#f4f7f8" font-size="13" font-family="Roboto-Bold, Roboto" font-weight="700"><tspan x="-86.969" y="0">OUR PURPOSE</tspan></text><text transform="translate(889 138)" fill="#f4f7f8" font-size="13" font-family="Roboto-Bold, Roboto" font-weight="700" opacity="0.5"><tspan x="-52.222" y="0">STORIES</tspan></text><text transform="translate(889 75)" fill="#f4f7f8" font-size="13" font-family="Roboto-Bold, Roboto" font-weight="700"><tspan x="-60.779" y="0">OUR WOW</tspan></text><text transform="translate(889 12)" fill="#f4f7f8" font-size="13" font-family="Roboto-Bold, Roboto" font-weight="700"><tspan x="-36.861" y="0">HOME</tspan></text></g></g></svg>